# xmcd
#
# Track frame offsets:
#	150
#	16673
#	27633
#	43259
#	56341
#	67953
#	80505
#	100232
#	118300
#	142391
#	163028
#	177967
#	196099
#	216337
#	226132
#	241596
#	256700
#	265839
#	279221
#	287588
#
# Disc length: 4135 seconds
#
# Revision: 3
# Processed by: cddbd v1.5.2PL0 Copyright (c) Steve Scherf et al.
# Submitted via: audiograbber 1.83.01
#
DISCID=18102514
DTITLE=Various Artist - The Whole World In His Hands [CD 4)
DYEAR=2004
DGENRE=Gospel
TTITLE0=Aretha Franklin - While The Blood Runs Warm
TTITLE1=The Raspberry Singers - Let's Spread The News
TTITLE2=The Coyden S.D.A. Gospel Choir - You're All I Need To Get By
TTITLE3=Lee Patterson Singers - Go Tell It To The Mountain
TTITLE4=The Golden Gate Quartet - Good News
TTITLE5=Joe Simon - My Special Prayer
TTITLE6=United Gospel Singers L.A. - The Blood
TTITLE7=Church On The Street Singers - People Get Ready
TTITLE8=Gloria Gaynor and The United Inspirational Gospel Chorus N.Y. - Oh Happ
TTITLE8=y Day
TTITLE9=The Pretty Singers - Going Home Tomorrow
TTITLE10=The Golden Gate Quartet - Wade In The Water
TTITLE11=Land Of Grace - Don't Let Me Stand In The Rain
TTITLE12=The Mighty Clouds Of Joy - I Know I Got Religion
TTITLE13=Brenda Lee - Have A Little Talk With Jesus
TTITLE14=Pat Boone - Family Bible
TTITLE15=Slim Whitman - Manison Over The Hilltop
TTITLE16=The Jordanaires - Joshua Fit The Battle Of Jericho
TTITLE17=Mahalia Jackson - Peace In The Valley
TTITLE18=The Impressions - I Need Your Love
TTITLE19=Joe Simon - Lay My Burdon Down
EXTD=YEAR: 2004
EXTT0=
EXTT1=
EXTT2=
EXTT3=
EXTT4=
EXTT5=
EXTT6=
EXTT7=
EXTT8=
EXTT9=
EXTT10=
EXTT11=
EXTT12=
EXTT13=
EXTT14=
EXTT15=
EXTT16=
EXTT17=
EXTT18=
EXTT19=
PLAYORDER=
